<?xml version="1.0" encoding="utf-8"?>
<!-- Svg Vector Icons : http://www.onlinewebfonts.com/icon -->
<!DOCTYPE svg PUBLIC "-//W3C//DTD SVG 1.1//EN" "http://www.w3.org/Graphics/SVG/1.1/DTD/svg11.dtd">
<svg version="1.1" xmlns="http://www.w3.org/2000/svg" xmlns:xlink="http://www.w3.org/1999/xlink" x="0px" y="0px" viewBox="0 0 1000 1000" enable-background="new 0 0 1000 1000" xml:space="preserve">
<metadata> Svg Vector Icons : http://www.onlinewebfonts.com/icon </metadata>
<g><g transform="translate(0.000000,511.000000) scale(0.100000,-0.100000)"><path d="M4851.1,4724.6c-107.1-42.9-198.7-109.1-249.3-183.1c-29.2-42.8-259-670-541.5-1476.3c-270.7-771.3-496.7-1408.1-502.5-1414c-5.8-7.8-697.3-27.3-1536.7-44.8c-1482.2-29.2-1527-31.2-1620.4-72.1c-136.3-58.4-262.9-202.6-290.2-329.2c-33.1-157.8,13.6-335,118.8-449.9c27.3-27.3,576.5-448,1225.1-932.9c646.6-485,1184.2-888.1,1192-895.9c9.7-7.8-181.1-666.1-424.6-1460.7c-405.1-1324.4-442.1-1454.9-432.4-1550.3c19.5-185,140.2-356.4,296-416.8c74-29.2,294.1-31.2,366.2-1.9c56.5,21.4,2413.1,1636,2473.5,1694.5c46.8,46.7,68.2,136.3,48.7,212.3c-19.5,72.1-113,140.2-192.8,140.2c-64.3,0-60.4,1.9-1388.7-913.5c-609.6-418.8-1121.9-761.5-1137.4-757.6c-81.8,15.6-76,42.9,393.4,1575.6c253.2,829.7,459.6,1530.9,459.6,1562c0,33.1-23.4,77.9-62.3,120.8c-35.1,35.1-621.3,483-1301,993.3C1064.8,634.5,505.9,1063,502,1074.7c-2,13.6,5.8,39,19.5,56.5c23.4,31.2,169.4,35.1,1593.2,64.3c862.8,15.6,1595.1,35,1630.2,40.9c35.1,3.9,81.8,33.1,107.1,62.3c27.3,35.1,237.6,605.7,568.7,1548.4c522,1484.1,525.9,1493.9,578.5,1493.9c31.2,0,58.4-13.6,66.2-33.1c5.8-19.5,245.4-697.3,529.8-1505.5c284.3-808.3,529.8-1484.1,545.3-1503.6c15.6-17.5,50.6-40.9,79.8-50.6c31.2-13.6,683.6-33.1,1649.7-52.6c1180.3-23.4,1601-37,1610.7-54.5c7.8-13.6,15.6-39,15.6-56.5c0-19.5-319.4-268.8-855-666.1C8129,34.6,7778.4-238,7764.8-267.3c-37-83.8-25.3-157.8,35.1-225.9c48.7-54.5,70.1-64.3,142.2-64.3c79.9,0,124.6,31.2,960.2,652.5c790.7,590.1,882.3,662.2,929,749.8c95.4,175.3,91.5,374-11.7,514.2c-58.4,77.9-173.3,163.6-264.9,194.8c-44.8,15.6-555.1,33.1-1587.3,54.5c-835.6,15.6-1521.1,31.2-1523.1,33.1c-1.9,2-229.8,642.7-502.5,1423.7c-356.4,1014.7-514.2,1441.3-553.1,1490c-91.5,114.9-222,183.1-360.3,188.9C4964,4746,4882.2,4738.2,4851.1,4724.6z"/><path d="M7223.3-849.6c-120.8-52.6-122.7-66.2-122.7-876.4v-730.4h-730.4c-818,0-825.8-2-878.4-130.5c-39-89.6-19.5-167.5,54.6-229.8l58.4-48.7h747.9h747.9v-751.8V-4369l66.2-66.2c91.5-91.5,185-91.5,276.6,0l66.2,66.2v751.8v751.8h749.9h749.8l62.3,56.5c54.5,48.7,64.3,70.1,64.3,146.1c0,70.1-11.7,99.3-54.5,142.2l-52.6,54.5l-759.6,5.8l-759.6,5.8v744c0,825.8,1.9,808.3-128.5,862.8C7303.2-814.5,7301.2-814.5,7223.3-849.6z"/></g></g>
</svg>