<?xml version="1.0" encoding="utf-8"?>
<!-- Svg Vector Icons : http://www.onlinewebfonts.com/icon -->
<!DOCTYPE svg PUBLIC "-//W3C//DTD SVG 1.1//EN" "http://www.w3.org/Graphics/SVG/1.1/DTD/svg11.dtd">
<svg version="1.1" xmlns="http://www.w3.org/2000/svg" xmlns:xlink="http://www.w3.org/1999/xlink" x="0px" y="0px" viewBox="0 0 1000 1000" enable-background="new 0 0 1000 1000" xml:space="preserve">
<metadata> Svg Vector Icons : http://www.onlinewebfonts.com/icon </metadata>
<g><g><path d="M179.1,354.6c11.9,0,22.9-0.8,34-3.2c26.9,34.8,59.3,68.8,98.8,99.6c51.4,41.1,102.7,70.3,135.9,87.7V662c-65.6,22.1-113,83.8-113,156.5c0,90.9,74.3,165.2,165.2,165.2c90.9,0,165.2-74.3,165.2-165.2c0-72.7-47.4-134.4-113-156.5V538.7c33.2-17.4,84.6-46.6,135.9-87.7c39.5-31.6,71.9-64.8,98.8-99.6c11.1,2.4,22.1,3.2,34,3.2c93.3,0,169.1-75.9,169.1-169.1c0-93.3-75.9-169.1-169.1-169.1c-93.3,0-169.1,75.9-169.1,169.1c0,40.3,14.2,77.5,37.9,105.9C628.8,366.4,543.5,415.4,500,436.8c-43.5-21.3-128.8-70.3-189.7-145.4c23.7-29.2,37.9-65.6,37.9-105.9c0-93.3-75.9-169.1-169.1-169.1C85.9,16.3,10,92.2,10,185.5C10,278.7,85.9,354.6,179.1,354.6z M820.9,129.3c19,0,36.4,9.5,46.6,24.5c6.3,9.5,10.3,20.5,10.3,32.4c0,20.5-11.1,37.9-26.9,48.2c-8.7,5.5-19,8.7-29.2,8.7c-30.8,0-56.1-25.3-56.1-56.1C765.5,156.2,790,129.3,820.9,129.3z M500,762.4c25.3,0,46.6,16.6,53.7,39.5c1.6,5.5,2.4,11.1,2.4,16.6c0,30.8-25.3,56.1-56.1,56.1c-30.8,0-56.1-25.3-56.1-56.1c0-5.5,0.8-11.1,2.4-16.6C453.4,779,474.7,762.4,500,762.4z M132.5,153c10.3-15,26.9-24.5,46.6-24.5c30.8,0,56.1,25.3,56.1,56.1s-25.3,56.9-56.1,56.9c-11.1,0-20.5-3.2-29.2-8.7c-15.8-10.3-26.9-27.7-26.9-48.2C123,173.6,126.2,162.5,132.5,153z"/></g><g></g><g></g><g></g><g></g><g></g><g></g><g></g><g></g><g></g><g></g><g></g><g></g><g></g><g></g><g></g></g>
</svg>